<svg preserveAspectRatio="xMidYMid meet" data-bbox="20 20 160 160" viewBox="20 20 160 160" height="200" width="200" xmlns="http://www.w3.org/2000/svg" data-type="color" role="presentation" aria-hidden="true"><defs><style>#comp-jsiu9f55 svg [data-color="1"] {fill: #000000;}</style></defs>
    <g>
        <path d="M180 180H20V20h160v160zm-154.775-5.225h149.549V25.225H25.225v149.55z" fill="#000016" data-color="1"></path>
        <path d="M35.519 35.467v129.327h129.327V35.467H35.519zm124.102 26.189a37.305 37.305 0 0 0-8.465-12.894 37.364 37.364 0 0 0-12.083-8.069h20.548v20.963zm-63.642 38.503c-5.722 4.718-12.837 7.294-20.351 7.314h-.084c-7.539 0-14.684-2.579-20.431-7.317 5.722-4.718 12.837-7.294 20.351-7.314h.084c7.539 0 14.684 2.578 20.431 7.317zM92.58 75.367c-.02-7.919 2.842-15.182 7.588-20.808 4.875 5.772 7.546 12.999 7.565 20.643.02 7.7-2.654 14.99-7.568 20.807-4.71-5.583-7.565-12.783-7.585-20.642zm7.588 28.937c4.875 5.772 7.546 12.999 7.565 20.643.02 7.919-2.842 15.182-7.588 20.807-4.875-5.772-7.546-12.999-7.565-20.643-.02-7.918 2.842-15.181 7.588-20.807zm4.194-4.146a32.034 32.034 0 0 1 20.324-7.317h.084c7.533 0 14.672 2.574 20.416 7.304-5.539 4.557-12.62 7.307-20.336 7.326h-.083a32.031 32.031 0 0 1-20.405-7.313zm20.311-12.542a37.188 37.188 0 0 0-15.091 3.232 37.283 37.283 0 0 0 3.377-15.66c-.023-9.043-3.241-17.581-9.1-24.347 5.609-4.805 12.88-7.725 20.827-7.745h.083c17.71 0 32.142 14.385 32.187 32.106.021 8.149-3.01 15.602-8.005 21.292-6.779-5.758-15.295-8.879-24.278-8.878zm-24.501-40.487a37.247 37.247 0 0 0-10.354-6.436h20.734a37.54 37.54 0 0 0-10.38 6.436zm-3.694 3.714c-5.698 6.586-9.147 15.166-9.124 24.537a37.299 37.299 0 0 0 3.368 15.443 37.305 37.305 0 0 0-15.175-3.207h-.098c-8.933.023-17.374 3.162-24.1 8.885-5.145-5.85-7.972-13.271-7.992-21.135-.045-17.749 14.357-32.225 32.106-32.27 7.775-.033 15.161 2.718 21.015 7.747zm-48.875 49.312a37.24 37.24 0 0 0-6.858 11.113V89.045a37.233 37.233 0 0 0 6.858 11.11zm3.747 3.656c6.755 5.748 15.232 8.888 24.193 8.887h.098a37.31 37.31 0 0 0 15.112-3.22 37.164 37.164 0 0 0-3.398 15.648c.023 9.043 3.241 17.581 9.1 24.347-5.609 4.805-12.88 7.725-20.827 7.745h-.084c-8.566 0-16.625-3.326-22.7-9.369-6.095-6.064-9.464-14.138-9.486-22.736-.021-7.921 2.807-15.407 7.992-21.302zm48.806 49.387a37.275 37.275 0 0 0 10.208 6.371H89.945a37.246 37.246 0 0 0 10.211-6.371zm24.61 4.02c-7.755 0-15.089-2.734-20.916-7.734 5.91-6.821 9.133-15.438 9.109-24.549a37.299 37.299 0 0 0-3.368-15.443 37.305 37.305 0 0 0 15.175 3.207h.098c9.181-.023 17.586-3.375 24.089-8.898 5.152 5.853 7.984 13.279 8.004 21.148.045 17.748-14.357 32.225-32.106 32.27l-.085-.001zm27.932-57.073a37.519 37.519 0 0 0 6.923-11.268v22.518a37.24 37.24 0 0 0-6.923-11.25zM61.246 40.692a37.347 37.347 0 0 0-12.223 8.204 37.327 37.327 0 0 0-8.278 12.621V40.692h20.501zm-20.502 98.047a37.612 37.612 0 0 0 20.429 20.83H40.744v-20.83zm98.39 20.83a37.611 37.611 0 0 0 20.487-20.963v20.963h-20.487z" fill="#000016" data-color="1"></path>
    </g>
</svg>