<svg preserveAspectRatio="xMidYMid meet" data-bbox="20 20 160 160" viewBox="20 20 160 160" height="200" width="200" xmlns="http://www.w3.org/2000/svg" data-type="color" role="presentation" aria-hidden="true"><defs><style>#comp-key1aqkb svg [data-color="1"] {fill: #000000;}</style></defs>
    <g>
        <path d="M20 20v160h160V20H20zm154.774 154.775H25.225V25.225h149.549v149.55z" fill="#000016" data-color="1"></path>
        <path d="M164.742 35.467H35.467v129.275h129.275V35.467zm-28.723 61.711c-.179-7.742-1.169-15.23-2.892-22.167 2.63 1.043 5.128 2.209 7.451 3.508 9.232 5.164 14.755 11.712 15.85 18.659h-20.409zm-5.225 0h-27.939l.039-28.014c8.611.247 16.858 1.541 24.27 3.77 2.177 7.419 3.423 15.656 3.63 24.244zm-27.893-33.242l.029-20.761c6.887 1.155 13.373 6.668 18.497 15.828 1.383 2.472 2.616 5.141 3.708 7.959-6.946-1.773-14.458-2.811-22.234-3.026zm-5.195-20.791l-.029 20.778c-7.789.152-15.329 1.122-22.315 2.837 1.073-2.743 2.279-5.345 3.629-7.757 5.176-9.257 11.746-14.784 18.715-15.858zm-.037 26.002l-.039 28.031H69.624c.209-8.676 1.476-16.995 3.695-24.474 7.457-2.159 15.73-3.38 24.35-3.557zM64.398 97.178h-21.14c1.095-6.947 6.618-13.495 15.85-18.659 2.561-1.432 5.331-2.707 8.262-3.827-1.773 7.026-2.791 14.626-2.972 22.486zm.001 5.225c.188 7.823 1.206 15.387 2.97 22.382-2.931-1.12-5.701-2.395-8.262-3.828-9.185-5.138-14.702-11.646-15.836-18.554h21.128zm5.226 0h27.998l-.039 27.925c-8.589-.183-16.832-1.404-24.265-3.556-2.21-7.448-3.477-15.73-3.694-24.369zm27.951 33.151l-.029 20.755c-6.909-1.133-13.418-6.65-18.557-15.836-1.349-2.412-2.555-5.012-3.628-7.754 6.956 1.707 14.461 2.677 22.214 2.835zm5.196 20.769l.029-20.778c7.811-.208 15.357-1.247 22.334-3.027-1.092 2.817-2.325 5.485-3.707 7.956-5.164 9.229-11.71 14.752-18.656 15.849zm.037-26.006l.039-27.914h27.945c-.214 8.551-1.461 16.75-3.629 24.14-7.436 2.237-15.714 3.532-24.355 3.774zm33.209-27.914h20.396c-1.134 6.908-6.651 13.417-15.836 18.554-2.323 1.299-4.821 2.466-7.452 3.509 1.716-6.906 2.706-14.358 2.892-22.063zm7.111-28.443c-3.596-2.012-7.555-3.742-11.791-5.173-1.466-4.439-3.253-8.586-5.35-12.335-2.367-4.231-5.032-7.78-7.914-10.628 8.321 2.746 15.956 7.396 22.348 13.756 6.615 6.581 11.411 14.499 14.158 23.145-2.971-3.211-6.805-6.167-11.451-8.765zm-68.7-17.508c-2.056 3.675-3.817 7.731-5.267 12.072-4.541 1.482-8.781 3.297-12.605 5.436-4.246 2.375-7.805 5.05-10.657 7.944 2.756-8.232 7.379-15.785 13.68-22.119 6.51-6.543 14.331-11.303 22.867-14.065-2.922 2.864-5.623 6.45-8.018 10.732zm-17.872 69.067c3.825 2.139 8.065 3.954 12.606 5.437 1.45 4.34 3.21 8.394 5.266 12.068 2.719 4.861 5.831 8.826 9.215 11.85-8.91-2.665-17.081-7.5-23.859-14.244-6.684-6.651-11.515-14.665-14.247-23.417 2.908 3.034 6.596 5.832 11.019 8.306zm69.431 17.505c2.096-3.748 3.883-7.893 5.349-12.331 4.236-1.432 8.196-3.162 11.792-5.174 4.835-2.705 8.785-5.799 11.803-9.163-2.652 8.99-7.507 17.236-14.303 24.067-6.736 6.77-14.868 11.646-23.751 14.358 3.344-3.012 6.419-6.946 9.11-11.757zm33.528-62.022c-3.005-9.383-8.222-17.978-15.407-25.126-7.11-7.074-15.628-12.211-24.911-15.184h40.318v40.31zm-78.512-40.31c-9.384 3.005-17.98 8.222-25.129 15.408-7.074 7.11-12.211 15.628-15.183 24.913v-40.32h40.312zm-40.312 78.513c3.005 9.384 8.222 17.98 15.408 25.129 7.11 7.074 15.626 12.211 24.909 15.183H40.692v-40.312zm78.513 40.312c9.384-3.005 17.98-8.222 25.129-15.408 7.074-7.11 12.209-15.627 15.182-24.91v40.318h-40.311z" fill="#000016" data-color="1"></path>
    </g>
</svg>