<svg preserveAspectRatio="xMidYMid meet" data-bbox="20 20 160 160" viewBox="20 20 160 160" height="200" width="200" xmlns="http://www.w3.org/2000/svg" data-type="color" role="presentation" aria-hidden="true"><defs><style>#comp-key1cotw svg [data-color="1"] {fill: #000000;}</style></defs>
    <g>
        <path d="M20 20v160h160V20H20zm154.798 154.798H25.202V25.202h149.597v149.596z" fill="#000016" data-color="1"></path>
        <path d="M164.76 35.449H35.501v129.259H164.76V35.449zm-5.202 70.637h-52.797l52.797-45.759v45.759zm-56.853-3.367V56.983h52.77l-52.77 45.736zm-5.202.484l-54.064-46.22h54.064v46.22zm-4.632 2.883H40.702V61.487l52.169 44.599zm-52.169 5.201h52.116l-52.116 45.168v-45.168zm56.801 2.823v45.396H45.125l52.378-45.396zm5.202.383l52.653 45.013h-52.653v-45.013zm4.255-3.206h52.598v44.966l-52.598-44.966zm52.598-70.637v11.131H40.702V40.65h118.856z" fill="#000016" data-color="1"></path>
    </g>
</svg>